<mxfile host="app.diagrams.net" agent="Mozilla/5.0 (Windows NT 10.0; Win64; x64) AppleWebKit/537.36 (KHTML, like Gecko) Chrome/128.0.0.0 Safari/537.36" version="24.7.14">
  <diagram name="Page-1" id="BMAHrNmiL2BEpOxbA0OV">
    <mxGraphModel dx="794" dy="539" grid="1" gridSize="10" guides="1" tooltips="1" connect="1" arrows="1" fold="1" page="1" pageScale="1" pageWidth="850" pageHeight="1100" math="0" shadow="0">
      <root>
        <mxCell id="0" />
        <mxCell id="1" parent="0" />
        <mxCell id="LT7B8i88pU-oq0ya5EBr-27" value="" style="rounded=0;whiteSpace=wrap;html=1;" vertex="1" parent="1">
          <mxGeometry x="120" y="40" width="470" height="410" as="geometry" />
        </mxCell>
        <mxCell id="LT7B8i88pU-oq0ya5EBr-1" value="User" style="shape=umlActor;verticalLabelPosition=bottom;verticalAlign=top;html=1;outlineConnect=0;" vertex="1" parent="1">
          <mxGeometry x="60" y="220" width="30" height="60" as="geometry" />
        </mxCell>
        <mxCell id="LT7B8i88pU-oq0ya5EBr-2" value="Daftar / Login akun" style="ellipse;whiteSpace=wrap;html=1;" vertex="1" parent="1">
          <mxGeometry x="210" y="50" width="110" height="70" as="geometry" />
        </mxCell>
        <mxCell id="LT7B8i88pU-oq0ya5EBr-3" value="Melihat Informasi Lapangan" style="ellipse;whiteSpace=wrap;html=1;" vertex="1" parent="1">
          <mxGeometry x="210" y="130" width="110" height="70" as="geometry" />
        </mxCell>
        <mxCell id="LT7B8i88pU-oq0ya5EBr-4" value="Menyewa / Memesan Lapangan" style="ellipse;whiteSpace=wrap;html=1;" vertex="1" parent="1">
          <mxGeometry x="210" y="210" width="110" height="70" as="geometry" />
        </mxCell>
        <mxCell id="LT7B8i88pU-oq0ya5EBr-5" value="Melakukan Pembayaran" style="ellipse;whiteSpace=wrap;html=1;" vertex="1" parent="1">
          <mxGeometry x="210" y="290" width="110" height="70" as="geometry" />
        </mxCell>
        <mxCell id="LT7B8i88pU-oq0ya5EBr-6" value="Memberikan Review" style="ellipse;whiteSpace=wrap;html=1;" vertex="1" parent="1">
          <mxGeometry x="210" y="370" width="110" height="70" as="geometry" />
        </mxCell>
        <mxCell id="LT7B8i88pU-oq0ya5EBr-8" value="Daftar / Login akun" style="ellipse;whiteSpace=wrap;html=1;" vertex="1" parent="1">
          <mxGeometry x="400" y="50" width="110" height="70" as="geometry" />
        </mxCell>
        <mxCell id="LT7B8i88pU-oq0ya5EBr-9" value="Menambahkan lapangan" style="ellipse;whiteSpace=wrap;html=1;" vertex="1" parent="1">
          <mxGeometry x="400" y="130" width="110" height="70" as="geometry" />
        </mxCell>
        <mxCell id="LT7B8i88pU-oq0ya5EBr-11" value="" style="endArrow=classic;html=1;rounded=0;exitX=1;exitY=0.3333333333333333;exitDx=0;exitDy=0;exitPerimeter=0;entryX=0;entryY=0.5;entryDx=0;entryDy=0;" edge="1" parent="1" source="LT7B8i88pU-oq0ya5EBr-1" target="LT7B8i88pU-oq0ya5EBr-2">
          <mxGeometry width="50" height="50" relative="1" as="geometry">
            <mxPoint x="160" y="140" as="sourcePoint" />
            <mxPoint x="210" y="90" as="targetPoint" />
          </mxGeometry>
        </mxCell>
        <mxCell id="LT7B8i88pU-oq0ya5EBr-12" value="" style="endArrow=classic;html=1;rounded=0;exitX=1;exitY=0.3333333333333333;exitDx=0;exitDy=0;exitPerimeter=0;entryX=0;entryY=0.5;entryDx=0;entryDy=0;" edge="1" parent="1" source="LT7B8i88pU-oq0ya5EBr-1" target="LT7B8i88pU-oq0ya5EBr-3">
          <mxGeometry width="50" height="50" relative="1" as="geometry">
            <mxPoint x="100" y="245" as="sourcePoint" />
            <mxPoint x="220" y="95" as="targetPoint" />
          </mxGeometry>
        </mxCell>
        <mxCell id="LT7B8i88pU-oq0ya5EBr-13" value="" style="endArrow=classic;html=1;rounded=0;exitX=1;exitY=0.3333333333333333;exitDx=0;exitDy=0;exitPerimeter=0;entryX=0;entryY=0.5;entryDx=0;entryDy=0;" edge="1" parent="1" source="LT7B8i88pU-oq0ya5EBr-1" target="LT7B8i88pU-oq0ya5EBr-4">
          <mxGeometry width="50" height="50" relative="1" as="geometry">
            <mxPoint x="100" y="245" as="sourcePoint" />
            <mxPoint x="220" y="175" as="targetPoint" />
          </mxGeometry>
        </mxCell>
        <mxCell id="LT7B8i88pU-oq0ya5EBr-14" value="" style="endArrow=classic;html=1;rounded=0;exitX=1;exitY=0.3333333333333333;exitDx=0;exitDy=0;exitPerimeter=0;entryX=0;entryY=0.5;entryDx=0;entryDy=0;" edge="1" parent="1" source="LT7B8i88pU-oq0ya5EBr-1" target="LT7B8i88pU-oq0ya5EBr-5">
          <mxGeometry width="50" height="50" relative="1" as="geometry">
            <mxPoint x="100" y="250" as="sourcePoint" />
            <mxPoint x="220" y="255" as="targetPoint" />
          </mxGeometry>
        </mxCell>
        <mxCell id="LT7B8i88pU-oq0ya5EBr-15" value="" style="endArrow=classic;html=1;rounded=0;exitX=1;exitY=0.3333333333333333;exitDx=0;exitDy=0;exitPerimeter=0;entryX=0;entryY=0.5;entryDx=0;entryDy=0;" edge="1" parent="1" source="LT7B8i88pU-oq0ya5EBr-1" target="LT7B8i88pU-oq0ya5EBr-6">
          <mxGeometry width="50" height="50" relative="1" as="geometry">
            <mxPoint x="100" y="250" as="sourcePoint" />
            <mxPoint x="220" y="335" as="targetPoint" />
          </mxGeometry>
        </mxCell>
        <mxCell id="LT7B8i88pU-oq0ya5EBr-16" value="Admin" style="shape=umlActor;verticalLabelPosition=bottom;verticalAlign=top;html=1;outlineConnect=0;" vertex="1" parent="1">
          <mxGeometry x="630" y="330" width="30" height="60" as="geometry" />
        </mxCell>
        <mxCell id="LT7B8i88pU-oq0ya5EBr-17" value="Memberikan Informasi Lapangan" style="ellipse;whiteSpace=wrap;html=1;" vertex="1" parent="1">
          <mxGeometry x="400" y="210" width="110" height="70" as="geometry" />
        </mxCell>
        <mxCell id="LT7B8i88pU-oq0ya5EBr-18" value="Pemilik Lapangan" style="shape=umlActor;verticalLabelPosition=bottom;verticalAlign=top;html=1;outlineConnect=0;" vertex="1" parent="1">
          <mxGeometry x="630" y="145" width="30" height="60" as="geometry" />
        </mxCell>
        <mxCell id="LT7B8i88pU-oq0ya5EBr-19" value="Login" style="ellipse;whiteSpace=wrap;html=1;" vertex="1" parent="1">
          <mxGeometry x="400" y="290" width="110" height="70" as="geometry" />
        </mxCell>
        <mxCell id="LT7B8i88pU-oq0ya5EBr-20" value="Memverifikasi&amp;nbsp;" style="ellipse;whiteSpace=wrap;html=1;" vertex="1" parent="1">
          <mxGeometry x="400" y="370" width="110" height="70" as="geometry" />
        </mxCell>
        <mxCell id="LT7B8i88pU-oq0ya5EBr-22" value="" style="endArrow=classic;html=1;rounded=0;exitX=0;exitY=0.3333333333333333;exitDx=0;exitDy=0;exitPerimeter=0;entryX=1;entryY=0.5;entryDx=0;entryDy=0;" edge="1" parent="1" source="LT7B8i88pU-oq0ya5EBr-18" target="LT7B8i88pU-oq0ya5EBr-8">
          <mxGeometry width="50" height="50" relative="1" as="geometry">
            <mxPoint x="410" y="245" as="sourcePoint" />
            <mxPoint x="530" y="90" as="targetPoint" />
          </mxGeometry>
        </mxCell>
        <mxCell id="LT7B8i88pU-oq0ya5EBr-23" value="" style="endArrow=classic;html=1;rounded=0;exitX=0;exitY=0.3333333333333333;exitDx=0;exitDy=0;exitPerimeter=0;entryX=1;entryY=0.5;entryDx=0;entryDy=0;" edge="1" parent="1" source="LT7B8i88pU-oq0ya5EBr-18" target="LT7B8i88pU-oq0ya5EBr-9">
          <mxGeometry width="50" height="50" relative="1" as="geometry">
            <mxPoint x="640" y="175" as="sourcePoint" />
            <mxPoint x="520" y="95" as="targetPoint" />
          </mxGeometry>
        </mxCell>
        <mxCell id="LT7B8i88pU-oq0ya5EBr-24" value="" style="endArrow=classic;html=1;rounded=0;exitX=0;exitY=0.3333333333333333;exitDx=0;exitDy=0;exitPerimeter=0;entryX=1;entryY=0.5;entryDx=0;entryDy=0;" edge="1" parent="1" source="LT7B8i88pU-oq0ya5EBr-18" target="LT7B8i88pU-oq0ya5EBr-17">
          <mxGeometry width="50" height="50" relative="1" as="geometry">
            <mxPoint x="640" y="175" as="sourcePoint" />
            <mxPoint x="520" y="175" as="targetPoint" />
          </mxGeometry>
        </mxCell>
        <mxCell id="LT7B8i88pU-oq0ya5EBr-25" value="" style="endArrow=classic;html=1;rounded=0;exitX=0;exitY=0.3333333333333333;exitDx=0;exitDy=0;exitPerimeter=0;entryX=1;entryY=0.5;entryDx=0;entryDy=0;" edge="1" parent="1" source="LT7B8i88pU-oq0ya5EBr-16" target="LT7B8i88pU-oq0ya5EBr-19">
          <mxGeometry width="50" height="50" relative="1" as="geometry">
            <mxPoint x="630" y="240" as="sourcePoint" />
            <mxPoint x="510" y="320" as="targetPoint" />
          </mxGeometry>
        </mxCell>
        <mxCell id="LT7B8i88pU-oq0ya5EBr-26" value="" style="endArrow=classic;html=1;rounded=0;exitX=0;exitY=0.3333333333333333;exitDx=0;exitDy=0;exitPerimeter=0;entryX=1;entryY=0.5;entryDx=0;entryDy=0;" edge="1" parent="1" source="LT7B8i88pU-oq0ya5EBr-16" target="LT7B8i88pU-oq0ya5EBr-20">
          <mxGeometry width="50" height="50" relative="1" as="geometry">
            <mxPoint x="640" y="360" as="sourcePoint" />
            <mxPoint x="520" y="335" as="targetPoint" />
          </mxGeometry>
        </mxCell>
      </root>
    </mxGraphModel>
  </diagram>
</mxfile>
